<mxfile host="app.diagrams.net" modified="2024-04-21T16:54:40.409Z" agent="Mozilla/5.0 (Windows NT 10.0; Win64; x64) AppleWebKit/537.36 (KHTML, like Gecko) Chrome/124.0.0.0 Safari/537.36" version="24.2.7" etag="HYbiIultJKRUZgCj89pq" type="github">
  <diagram name="Страница — 1" id="oeacRI9C3uSAY6F9_cj7">
    <mxGraphModel>
      <root>
        <mxCell id="0" />
        <mxCell id="1" parent="0" />
      </root>
    </mxGraphModel>
  </diagram>
</mxfile>
